<?xml version="1.0" encoding="utf-8"?><svg viewBox="0 0 1920 819" xmlns="http://www.w3.org/2000/svg" xmlns:xlink="http://www.w3.org/1999/xlink"><style>:root>svg{display:none}:root>svg:target{display:block}</style><svg viewBox="0 0 30 20" id="arrow-left" xmlns="http://www.w3.org/2000/svg"><defs><style>.acls-1{fill:#fff;fill-rule:evenodd}</style></defs><path id="aarrow_left" data-name="arrow left" class="acls-1" d="M489.634 666a.744.744 0 00.519-.208.7.7 0 000-1L481.8 656.7h26.463a.711.711 0 100-1.422H481.8l8.355-8.093a.7.7 0 000-1 .751.751 0 00-1.037 0l-10.126 9.809 10.126 9.809a.74.74 0 00.516.197z" transform="translate(-479 -646)"/></svg><svg viewBox="0 0 30 19.97" id="arrow-next" xmlns="http://www.w3.org/2000/svg"><defs><style>.bcls-1{fill:#16aae2;fill-rule:evenodd}</style></defs><path id="barrow_right" data-name="arrow right" class="bcls-1" d="M1123.37 4551a.734.734 0 01-.52-.21.683.683 0 010-1l8.35-8.08h-26.46a.71.71 0 110-1.42h26.46l-8.35-8.08a.683.683 0 010-1 .736.736 0 011.03 0l10.13 9.79-10.13 9.79a.728.728 0 01-.51.21z" transform="translate(-1104 -4531.03)"/></svg><svg viewBox="0 0 30 20" id="arrow-prev" xmlns="http://www.w3.org/2000/svg"><defs><style>.ccls-1{fill:#16aae2;fill-rule:evenodd}</style></defs><path id="carrow_left" data-name="arrow left" class="ccls-1" d="M797.634 4551a.742.742 0 00.519-.21.69.69 0 000-1l-8.355-8.1h26.463a.71.71 0 100-1.42H789.8l8.355-8.09a.7.7 0 000-1.01.766.766 0 00-1.038 0l-10.125 9.81 10.125 9.81a.742.742 0 00.517.21z" transform="translate(-787 -4531)"/></svg><svg viewBox="0 0 30 19.969" id="arrow-right" xmlns="http://www.w3.org/2000/svg"><defs><style>.dcls-1{fill:#fff;fill-rule:evenodd}</style></defs><path id="darrow_right" data-name="arrow right" class="dcls-1" d="M549.366 666a.746.746 0 01-.519-.207.7.7 0 010-1l8.355-8.081h-26.463a.71.71 0 110-1.419H557.2l-8.355-8.08a.7.7 0 010-1 .751.751 0 011.037 0L560.01 656l-10.126 9.795a.745.745 0 01-.518.205z" transform="translate(-530 -646.031)"/></svg><svg viewBox="0 0 27.34 27.344" id="cross" xmlns="http://www.w3.org/2000/svg"><defs><style>.ecls-1{fill:#fff;fill-rule:evenodd;opacity:.5}</style></defs><path id="eclose_btn" data-name="close btn" class="ecls-1" d="M1360.65 539.646l.7.708-26 26-.7-.708zm-25.94.344l-.72.715 26.3 26.3.72-.716z" transform="translate(-1334 -539.656)"/></svg><svg viewBox="0 0 25.188 17.03" id="left-gray" xmlns="http://www.w3.org/2000/svg"><defs><style>.fcls-1{fill:#b2b2b2;fill-rule:evenodd}</style></defs><path id="farrow_left" data-name="arrow left" class="fcls-1" d="M418.929 2028a.612.612 0 00.435-.18.59.59 0 000-.85l-7.015-6.88h22.22a.605.605 0 100-1.21h-22.22l7.015-6.88a.59.59 0 000-.85.617.617 0 00-.871 0l-8.5 8.34 8.5 8.33a.616.616 0 00.436.18z" transform="translate(-410 -2010.97)"/></svg><svg viewBox="0 0 1920 819" id="line" xmlns="http://www.w3.org/2000/svg"><defs><style>.gcls-1{fill:#16aae2;fill-rule:evenodd}</style></defs><path id="gline" class="gcls-1" d="M0 421L1920 5v403L0 824V421z" transform="translate(0 -5)"/></svg><svg viewBox="0 0 193 95" id="objects-line" xmlns="http://www.w3.org/2000/svg"><defs><style>.hcls-1{fill:#16aae2;fill-rule:evenodd}</style></defs><path id="hline" class="hcls-1" d="M580 2348.65L773 2307v53.35L580 2402v-53.35z" transform="translate(-580 -2307)"/></svg><svg id="plus" data-name="Группа 1" viewBox="0 0 21 21" xmlns="http://www.w3.org/2000/svg"><defs><style>.icls-1{fill:#f2f2f2;fill-rule:evenodd}</style></defs><path class="icls-1" d="M443 132h1v21h-1v-21z" transform="translate(-433 -132)"/><path class="icls-1" d="M454 142v1h-21v-1h21z" transform="translate(-433 -132)"/></svg><svg viewBox="0 0 43.24 36.75" id="quote" xmlns="http://www.w3.org/2000/svg"><defs><style>.jcls-1{fill:#fff;fill-rule:evenodd}</style></defs><path id="j_" data-name="”" class="jcls-1" d="M1432.1 164.343q3.54-4.814 3.54-14.31v-16.139h-16.46v17.68h8.71q0 11.634-8.71 12.852v6.222q9.39-1.492 12.92-6.305zm-26.79 0q3.54-4.814 3.54-14.31v-16.139h-16.46v17.68h8.7q0 11.634-8.7 12.852v6.222q9.39-1.492 12.92-6.305z" transform="translate(-1392.38 -133.906)"/></svg><svg viewBox="0 0 25.188 17" id="right-gray" xmlns="http://www.w3.org/2000/svg"><defs><style>.kcls-1{fill:#b2b2b2;fill-rule:evenodd}</style></defs><path id="karrow_right" data-name="arrow right" class="kcls-1" d="M720.071 2028a.616.616 0 01-.436-.18.592.592 0 010-.85l7.015-6.87h-22.219a.6.6 0 110-1.2h22.219l-7.015-6.87a.592.592 0 010-.85.617.617 0 01.871 0l8.5 8.32-8.5 8.32a.614.614 0 01-.435.18z" transform="translate(-703.812 -2011)"/></svg><svg viewBox="0 0 14 39" id="shadow" xmlns="http://www.w3.org/2000/svg"><defs><style>.lcls-1{fill:#909090;fill-rule:evenodd;opacity:.2}</style></defs><path id="lshadow" class="lcls-1" d="M1119 2698h14l-14 43v-43z" transform="translate(-1119 -2702)"/></svg></svg>